<svg xmlns="http://www.w3.org/2000/svg" width="428" height="120" viewBox="0 0 428 120" role="img" aria-label="ScotMesh MeshCore"><title>ScotMesh MeshCore</title><svg x="0" y="0" width="120" height="120" viewBox="0 0 100 100"><rect width="100" height="100" fill="#0A1424"/><path d="M24 24L50 9L76 24M76 24L91 50L76 76M76 76L50 91L24 76M24 76L9 50L24 24" fill="none" stroke="#56B4F5" stroke-opacity="0.55" stroke-width="2.2"/><g fill="#56B4F5" fill-opacity="0.85"><circle cx="50" cy="9" r="3.2"/><circle cx="91" cy="50" r="3.2"/><circle cx="50" cy="91" r="3.2"/><circle cx="9" cy="50" r="3.2"/></g><path d="M24 24L38 38M76 24L62 38M76 76L62 62M24 76L38 62" fill="none" stroke="#FFFFFF" stroke-width="9" stroke-linecap="round"/><g fill="#FFFFFF"><circle cx="24" cy="24" r="9.5"/><circle cx="76" cy="24" r="9.5"/><circle cx="76" cy="76" r="9.5"/><circle cx="24" cy="76" r="9.5"/></g><circle cx="50" cy="50" r="12.5" fill="#56B4F5" stroke="#FFFFFF" stroke-width="6"/></svg><path d="M164.00 54.86L164.00 54.86Q158.73 54.86 154.88 53.22Q151.04 51.58 148.87 48.79L148.87 48.79L153.52 44.57Q155.50 46.74 158.08 47.92Q160.65 49.10 164.06 49.10L164.06 49.10Q167.03 49.10 168.83 48.10Q170.63 47.11 170.63 45.07L170.63 45.07Q170.63 43.33 169.42 42.71Q168.21 42.09 166.23 41.78L166.23 41.78L161.08 40.97Q159.10 40.66 157.21 40.08Q155.32 39.49 153.86 38.43Q152.40 37.38 151.53 35.73Q150.67 34.09 150.67 31.74L150.67 31.74Q150.67 26.71 154.42 24.05Q158.17 21.38 164.74 21.38L164.74 21.38Q169.39 21.38 172.65 22.68Q175.90 23.99 178.01 26.34L178.01 26.34L173.85 30.93Q172.49 29.44 170.23 28.30Q167.96 27.15 164.49 27.15L164.49 27.15Q158.42 27.15 158.42 30.93L158.42 30.93Q158.42 32.67 159.66 33.32Q160.90 33.97 162.88 34.28L162.88 34.28L167.96 35.08Q170.01 35.39 171.90 35.98Q173.79 36.57 175.25 37.63Q176.71 38.68 177.57 40.29Q178.44 41.90 178.44 44.26L178.44 44.26Q178.44 49.22 174.63 52.04Q170.82 54.86 164.00 54.86ZM200.70 54.86L200.70 54.86Q197.04 54.86 194.13 53.68Q191.21 52.51 189.20 50.34Q187.18 48.17 186.10 45.07Q185.01 41.97 185.01 38.12L185.01 38.12Q185.01 34.28 186.10 31.18Q187.18 28.08 189.20 25.91Q191.21 23.74 194.10 22.56Q196.98 21.38 200.64 21.38L200.64 21.38Q205.72 21.38 208.82 23.49Q211.92 25.60 213.53 29.07L213.53 29.07L207.40 32.42Q206.53 30.37 204.95 29.10Q203.37 27.83 200.64 27.83L200.64 27.83Q197.10 27.83 195.21 29.88Q193.32 31.92 193.32 35.46L193.32 35.46L193.32 40.79Q193.32 44.26 195.21 46.34Q197.10 48.41 200.76 48.41L200.76 48.41Q203.61 48.41 205.32 47.11Q207.02 45.81 208.08 43.64L208.08 43.64L214.03 47.17Q212.42 50.58 209.16 52.72Q205.91 54.86 200.70 54.86ZM234.80 54.86L234.80 54.86Q231.14 54.86 228.26 53.68Q225.38 52.51 223.36 50.34Q221.35 48.17 220.26 45.07Q219.18 41.97 219.18 38.12L219.18 38.12Q219.18 34.28 220.26 31.18Q221.35 28.08 223.36 25.91Q225.38 23.74 228.26 22.56Q231.14 21.38 234.80 21.38L234.80 21.38Q238.40 21.38 241.31 22.56Q244.22 23.74 246.24 25.91Q248.25 28.08 249.34 31.18Q250.42 34.28 250.42 38.12L250.42 38.12Q250.42 41.97 249.34 45.07Q248.25 48.17 246.24 50.34Q244.22 52.51 241.31 53.68Q238.40 54.86 234.80 54.86ZM234.80 48.79L234.80 48.79Q238.21 48.79 240.19 46.71Q242.18 44.63 242.18 40.60L242.18 40.60L242.18 35.64Q242.18 31.61 240.19 29.54Q238.21 27.46 234.80 27.46L234.80 27.46Q231.39 27.46 229.41 29.54Q227.42 31.61 227.42 35.64L227.42 35.64L227.42 40.60Q227.42 44.63 229.41 46.71Q231.39 48.79 234.80 48.79ZM284.34 54.12L272.31 54.12Q267.72 54.12 265.55 51.70Q263.38 49.28 263.38 45.44L263.38 45.44L263.38 28.39L254.08 28.39L254.08 22.13L260.41 22.13Q262.33 22.13 263.13 21.35Q263.94 20.58 263.94 18.59L263.94 18.59L263.94 10.84L271.32 10.84L271.32 22.13L284.34 22.13L284.34 28.39L271.32 28.39L271.32 47.86L284.34 47.86L284.34 54.12ZM295.75 54.12L289.17 54.12L289.17 22.13L295.75 22.13L295.75 26.53L296.12 26.53Q296.86 24.42 298.26 22.90Q299.65 21.38 302.19 21.38L302.19 21.38Q304.61 21.38 306.04 22.78Q307.46 24.17 307.90 26.71L307.90 26.71L308.21 26.71Q309.01 24.54 310.59 22.96Q312.18 21.38 315.09 21.38L315.09 21.38Q318.62 21.38 320.17 23.92Q321.72 26.47 321.72 31.43L321.72 31.43L321.72 54.12L315.21 54.12L315.21 32.36Q315.21 29.57 314.44 28.45Q313.66 27.33 312.11 27.33L312.11 27.33Q310.69 27.33 309.73 28.26Q308.77 29.19 308.77 31.12L308.77 31.12L308.77 54.12L302.19 54.12L302.19 32.36Q302.19 29.57 301.45 28.45Q300.71 27.33 299.16 27.33L299.16 27.33Q297.67 27.33 296.71 28.26Q295.75 29.19 295.75 31.12L295.75 31.12L295.75 54.12ZM341.56 54.86L341.56 54.86Q337.72 54.86 334.74 53.68Q331.77 52.51 329.75 50.34Q327.74 48.17 326.68 45.10Q325.63 42.03 325.63 38.18L325.63 38.18Q325.63 34.28 326.72 31.18Q327.80 28.08 329.78 25.91Q331.77 23.74 334.59 22.56Q337.41 21.38 340.94 21.38L340.94 21.38Q344.42 21.38 347.21 22.53Q350.00 23.68 351.95 25.78Q353.90 27.89 354.96 30.87Q356.01 33.84 356.01 37.44L356.01 37.44L356.01 40.04L333.57 40.04L333.57 40.85Q333.57 44.32 335.74 46.46Q337.91 48.60 341.81 48.60L341.81 48.60Q344.79 48.60 346.93 47.39Q349.07 46.18 350.49 44.20L350.49 44.20L355.02 48.72Q353.28 51.27 349.97 53.06Q346.65 54.86 341.56 54.86ZM341.01 27.21L341.01 27.21Q337.66 27.21 335.61 29.32Q333.57 31.43 333.57 34.90L333.57 34.90L333.57 35.33L348.07 35.33L348.07 34.77Q348.07 31.30 346.18 29.26Q344.29 27.21 341.01 27.21ZM376.04 54.86L376.04 54.86Q370.77 54.86 366.92 53.22Q363.08 51.58 360.91 48.79L360.91 48.79L365.56 44.57Q367.54 46.74 370.12 47.92Q372.69 49.10 376.10 49.10L376.10 49.10Q379.07 49.10 380.87 48.10Q382.67 47.11 382.67 45.07L382.67 45.07Q382.67 43.33 381.46 42.71Q380.25 42.09 378.27 41.78L378.27 41.78L373.12 40.97Q371.14 40.66 369.25 40.08Q367.36 39.49 365.90 38.43Q364.44 37.38 363.57 35.73Q362.71 34.09 362.71 31.74L362.71 31.74Q362.71 26.71 366.46 24.05Q370.21 21.38 376.78 21.38L376.78 21.38Q381.43 21.38 384.69 22.68Q387.94 23.99 390.05 26.34L390.05 26.34L385.89 30.93Q384.53 29.44 382.27 28.30Q380.00 27.15 376.53 27.15L376.53 27.15Q370.46 27.15 370.46 30.93L370.46 30.93Q370.46 32.67 371.70 33.32Q372.94 33.97 374.92 34.28L374.92 34.28L380.00 35.08Q382.05 35.39 383.94 35.98Q385.83 36.57 387.29 37.63Q388.75 38.68 389.61 40.29Q390.48 41.90 390.48 44.26L390.48 44.26Q390.48 49.22 386.67 52.04Q382.86 54.86 376.04 54.86ZM397.55 54.12L397.55 8.24L405.49 8.24L405.49 27.77L405.80 27.77Q406.85 25.16 409.05 23.27Q411.25 21.38 415.16 21.38L415.16 21.38Q419.87 21.38 422.82 24.51Q425.76 27.64 425.76 33.47L425.76 33.47L425.76 54.12L417.82 54.12L417.82 34.59Q417.82 27.64 411.81 27.64L411.81 27.64Q410.57 27.64 409.45 27.95Q408.34 28.26 407.44 28.92Q406.54 29.57 406.01 30.50Q405.49 31.43 405.49 32.73L405.49 32.73L405.49 54.12L397.55 54.12Z" fill="#FFFFFF"/><path d="M156.65 111.76L150.90 111.76L167.35 66.86L173.10 66.86L156.65 111.76ZM183.15 104.86L177.85 104.86L177.85 79.06L183.15 79.06L183.15 82.61L183.45 82.61Q184.05 80.91 185.18 79.69Q186.30 78.46 188.35 78.46L188.35 78.46Q190.30 78.46 191.45 79.59Q192.60 80.71 192.95 82.76L192.95 82.76L193.20 82.76Q193.85 81.01 195.13 79.74Q196.40 78.46 198.75 78.46L198.75 78.46Q201.60 78.46 202.85 80.51Q204.10 82.56 204.10 86.56L204.10 86.56L204.10 104.86L198.85 104.86L198.85 87.31Q198.85 85.06 198.22 84.16Q197.60 83.26 196.35 83.26L196.35 83.26Q195.20 83.26 194.43 84.01Q193.65 84.76 193.65 86.31L193.65 86.31L193.65 104.86L188.35 104.86L188.35 87.31Q188.35 85.06 187.75 84.16Q187.15 83.26 185.90 83.26L185.90 83.26Q184.70 83.26 183.93 84.01Q183.15 84.76 183.15 86.31L183.15 86.31L183.15 104.86ZM220.60 105.46L220.60 105.46Q217.50 105.46 215.10 104.51Q212.70 103.56 211.07 101.81Q209.45 100.06 208.60 97.59Q207.75 95.11 207.75 92.01L207.75 92.01Q207.75 88.86 208.63 86.36Q209.50 83.86 211.10 82.11Q212.70 80.36 214.97 79.41Q217.25 78.46 220.10 78.46L220.10 78.46Q222.90 78.46 225.15 79.39Q227.40 80.31 228.97 82.01Q230.55 83.71 231.40 86.11Q232.25 88.51 232.25 91.41L232.25 91.41L232.25 93.51L214.15 93.51L214.15 94.16Q214.15 96.96 215.90 98.69Q217.65 100.41 220.80 100.41L220.80 100.41Q223.20 100.41 224.93 99.44Q226.65 98.46 227.80 96.86L227.80 96.86L231.45 100.51Q230.05 102.56 227.38 104.01Q224.70 105.46 220.60 105.46ZM220.15 83.16L220.15 83.16Q217.45 83.16 215.80 84.86Q214.15 86.56 214.15 89.36L214.15 89.36L214.15 89.71L225.85 89.71L225.85 89.26Q225.85 86.46 224.32 84.81Q222.80 83.16 220.15 83.16ZM248.90 105.46L248.90 105.46Q244.65 105.46 241.55 104.14Q238.45 102.81 236.70 100.56L236.70 100.56L240.45 97.16Q242.05 98.91 244.13 99.86Q246.20 100.81 248.95 100.81L248.95 100.81Q251.35 100.81 252.80 100.01Q254.25 99.21 254.25 97.56L254.25 97.56Q254.25 96.16 253.28 95.66Q252.30 95.16 250.70 94.91L250.70 94.91L246.55 94.26Q244.95 94.01 243.43 93.54Q241.90 93.06 240.72 92.21Q239.55 91.36 238.85 90.04Q238.15 88.71 238.15 86.81L238.15 86.81Q238.15 82.76 241.18 80.61Q244.20 78.46 249.50 78.46L249.50 78.46Q253.25 78.46 255.88 79.51Q258.50 80.56 260.20 82.46L260.20 82.46L256.85 86.16Q255.75 84.96 253.93 84.04Q252.10 83.11 249.30 83.11L249.30 83.11Q244.40 83.11 244.40 86.16L244.40 86.16Q244.40 87.56 245.40 88.09Q246.40 88.61 248 88.86L248 88.86L252.10 89.51Q253.75 89.76 255.28 90.24Q256.80 90.71 257.98 91.56Q259.15 92.41 259.85 93.71Q260.55 95.01 260.55 96.91L260.55 96.91Q260.55 100.91 257.48 103.19Q254.40 105.46 248.90 105.46ZM266.75 104.86L266.75 67.86L273.15 67.86L273.15 83.61L273.40 83.61Q274.25 81.51 276.02 79.99Q277.80 78.46 280.95 78.46L280.95 78.46Q284.75 78.46 287.13 80.99Q289.50 83.51 289.50 88.21L289.50 88.21L289.50 104.86L283.10 104.86L283.10 89.11Q283.10 83.51 278.25 83.51L278.25 83.51Q277.25 83.51 276.35 83.76Q275.45 84.01 274.73 84.54Q274 85.06 273.57 85.81Q273.15 86.56 273.15 87.61L273.15 87.61L273.15 104.86L266.75 104.86ZM308 105.46L308 105.46Q305.05 105.46 302.70 104.51Q300.35 103.56 298.73 101.81Q297.10 100.06 296.23 97.56Q295.35 95.06 295.35 91.96L295.35 91.96Q295.35 88.86 296.23 86.36Q297.10 83.86 298.73 82.11Q300.35 80.36 302.68 79.41Q305 78.46 307.95 78.46L307.95 78.46Q312.05 78.46 314.55 80.16Q317.05 81.86 318.35 84.66L318.35 84.66L313.40 87.36Q312.70 85.71 311.43 84.69Q310.15 83.66 307.95 83.66L307.95 83.66Q305.10 83.66 303.57 85.31Q302.05 86.96 302.05 89.81L302.05 89.81L302.05 94.11Q302.05 96.91 303.57 98.59Q305.10 100.26 308.05 100.26L308.05 100.26Q310.35 100.26 311.73 99.21Q313.10 98.16 313.95 96.41L313.95 96.41L318.75 99.26Q317.45 102.01 314.82 103.74Q312.20 105.46 308 105.46ZM336 105.46L336 105.46Q333.05 105.46 330.73 104.51Q328.40 103.56 326.77 101.81Q325.15 100.06 324.27 97.56Q323.40 95.06 323.40 91.96L323.40 91.96Q323.40 88.86 324.27 86.36Q325.15 83.86 326.77 82.11Q328.40 80.36 330.73 79.41Q333.05 78.46 336 78.46L336 78.46Q338.90 78.46 341.25 79.41Q343.60 80.36 345.23 82.11Q346.85 83.86 347.73 86.36Q348.60 88.86 348.60 91.96L348.60 91.96Q348.60 95.06 347.73 97.56Q346.85 100.06 345.23 101.81Q343.60 103.56 341.25 104.51Q338.90 105.46 336 105.46ZM336 100.56L336 100.56Q338.75 100.56 340.35 98.89Q341.95 97.21 341.95 93.96L341.95 93.96L341.95 89.96Q341.95 86.71 340.35 85.04Q338.75 83.36 336 83.36L336 83.36Q333.25 83.36 331.65 85.04Q330.05 86.71 330.05 89.96L330.05 89.96L330.05 93.96Q330.05 97.21 331.65 98.89Q333.25 100.56 336 100.56ZM353.75 104.86L353.75 99.81L360.15 99.81L360.15 84.11L353.75 84.11L353.75 79.06L366.55 79.06L366.55 86.11L366.95 86.11Q367.30 84.76 367.93 83.49Q368.55 82.21 369.52 81.24Q370.50 80.26 371.90 79.66Q373.30 79.06 375.25 79.06L375.25 79.06L378.05 79.06L378.05 85.06L372.75 85.06Q369.85 85.06 368.20 86.76Q366.55 88.46 366.55 91.11L366.55 91.11L366.55 99.81L375.50 99.81L375.50 104.86L353.75 104.86ZM394.60 105.46L394.60 105.46Q391.50 105.46 389.10 104.51Q386.70 103.56 385.07 101.81Q383.45 100.06 382.60 97.59Q381.75 95.11 381.75 92.01L381.75 92.01Q381.75 88.86 382.63 86.36Q383.50 83.86 385.10 82.11Q386.70 80.36 388.98 79.41Q391.25 78.46 394.10 78.46L394.10 78.46Q396.90 78.46 399.15 79.39Q401.40 80.31 402.98 82.01Q404.55 83.71 405.40 86.11Q406.25 88.51 406.25 91.41L406.25 91.41L406.25 93.51L388.15 93.51L388.15 94.16Q388.15 96.96 389.90 98.69Q391.65 100.41 394.80 100.41L394.80 100.41Q397.20 100.41 398.93 99.44Q400.65 98.46 401.80 96.86L401.80 96.86L405.45 100.51Q404.05 102.56 401.38 104.01Q398.70 105.46 394.60 105.46ZM394.15 83.16L394.15 83.16Q391.45 83.16 389.80 84.86Q388.15 86.56 388.15 89.36L388.15 89.36L388.15 89.71L399.85 89.71L399.85 89.26Q399.85 86.46 398.32 84.81Q396.80 83.16 394.15 83.16Z" fill="#56B4F5"/></svg>
